# xmcd CD database file
#
# Track frame offsets:
#	150
#	22442
#	47052
#	79460
#	102987
#	123685
#	149470
#	171290
#	188527
#	206087
#	236015
#	259305
#	282120
#
# Disc length: 3994 seconds
#
# Revision: 0
# Processed by: cddbd v1.5PL3 Copyright (c) Steve Scherf et al.
# Submitted via: CDex 1.51
#
DISCID=cb0f980d
DTITLE=Various Artist - Salsa Brava
DYEAR=1995
DGENRE=Salsa
TTITLE0=Luis "perico" ortiz - mi compañera del chilingui
TTITLE1=charlie palmieri - buchipluma na'ma
TTITLE2=eddie palmieri and ismael quintana - vamonos pa'l monte
TTITLE3=campana mayoral - josé magual jr.
TTITLE4=orlando contreras - yo soy un barco
TTITLE5=henry fiol - paso fino
TTITLE6=roberto torres - sabrosona
TTITLE7=henry fiol - yo no como camarón
TTITLE8=monguito - yo si como candela
TTITLE9=luis "perico" ortiz - tin marin
TTITLE10=javier vasquez - el verdadero son
TTITLE11=ismael rivera, cortijo y su combo - severa
TTITLE12=lalo rodriguez - nunca contigo
EXTD=YEAR: 1995
EXTT0=
EXTT1=
EXTT2=
EXTT3=
EXTT4=
EXTT5=
EXTT6=
EXTT7=
EXTT8=
EXTT9=
EXTT10=
EXTT11=
EXTT12=
PLAYORDER=
